Coordinates
version=1
nRows=10
nColumns=40
inDegrees=yes

Units are S.I. units (second, meters, Newtons, ...)
If the header above contains a line with 'inDegrees', this indicates whether rotational values are in degrees (yes) or radians (no).

endheader
time	pelvis_tilt	pelvis_list	pelvis_rotation	pelvis_tx	pelvis_ty	pelvis_tz	hip_flexion_r	hip_adduction_r	hip_rotation_r	knee_angle_r	knee_angle_r_beta	ankle_angle_r	subtalar_angle_r	mtp_angle_r	hip_flexion_l	hip_adduction_l	hip_rotation_l	knee_angle_l	knee_angle_l_beta	ankle_angle_l	subtalar_angle_l	mtp_angle_l	lumbar_extension	lumbar_bending	lumbar_rotation	arm_flex_r	arm_add_r	arm_rot_r	elbow_flex_r	pro_sup_r	wrist_flex_r	wrist_dev_r	arm_flex_l	arm_add_l	arm_rot_l	elbow_flex_l	pro_sup_l	wrist_flex_l	wrist_dev_l
      0.36400000	     21.86865148	      0.70555524	      2.07429463	      0.41469410	      0.96314469	     -0.29144607	     -5.70865071	      0.91292192	     -4.45348744	     27.36817372	      0.47766474	     -2.05938011	      0.00000000	      0.00000000	    -20.29328473	     -2.88643351	      1.54633205	     55.26758668	      0.96460136	    -27.08529287	      0.00000000	      0.00000000	    -34.16902590	      2.67929619	     -3.76611463	      0.26661260	    -16.66527031	      9.27590949	     40.34916144	     76.18480082	      0.00000000	      0.00000000	      5.22104625	    -23.97951280	     26.52208637	     47.80116963	     81.30406734	      0.00000000	      0.00000000
      0.36800000	     22.13382644	      0.63040315	      2.23090647	      0.42046865	      0.96446277	     -0.29115534	     -6.68464330	      1.08160497	     -4.79264229	     26.80212125	      0.46778526	     -2.09544454	      0.00000000	      0.00000000	    -19.94146521	     -3.11087195	      1.65883367	     55.59255438	      0.97027311	    -26.16766532	      0.00000000	      0.00000000	    -34.37649051	      2.77461430	     -3.72724243	      0.31055235	    -16.69794139	      9.41878778	     40.40988479	     76.29274288	      0.00000000	      0.00000000	      5.17725195	    -24.03558615	     26.62259194	     47.73666120	     81.38150107	      0.00000000	      0.00000000
      0.37200000	     22.25344373	      0.73609557	      2.11141572	      0.42592502	      0.96559105	     -0.29115212	     -7.33388533	      0.95670255	     -4.93223065	     26.53839770	      0.46318242	     -1.97930641	      0.00000000	      0.00000000	    -19.40895222	     -2.96686286	      1.50652219	     55.88719177	      0.97541551	    -25.87294516	      0.00000000	      0.00000000	    -34.47023690	      2.61468566	     -3.56993106	      0.39001312	    -16.79261395	      9.42215706	     40.48896045	     76.28674125	      0.00000000	      0.00000000	      5.13195998	    -23.96600445	     26.53618491	     47.64325527	     81.36718463	      0.00000000	      0.00000000
      0.37600000	     22.73334784	      0.56734326	      2.34522254	      0.43239864	      0.96722689	     -0.29088623	     -8.87186589	      1.33928015	     -5.03606411	     25.37843386	      0.44293723	     -2.15371518	      0.00000000	      0.00000000	    -19.45348303	     -3.27634375	      1.70659224	     55.99882144	      0.97736381	    -24.52864324	      0.00000000	      0.00000000	    -34.80331331	      2.84468500	     -3.66249152	      0.32245569	    -17.01517520	     10.24429906	     40.85762733	     76.19637136	      0.00000000	      0.00000000	      4.87991930	    -23.96469028	     26.23163989	     47.58805938	     81.47402168	      0.00000000	      0.00000000
      0.38000000	     22.82543994	      0.67898034	      2.25779922	      0.43797630	      0.96825323	     -0.29098846	     -9.60392992	      1.22290983	     -5.10523317	     24.92401426	      0.43500611	     -2.01668624	      0.00000000	      0.00000000	    -18.95307267	     -3.05764127	      1.74640666	     56.20252794	      0.98091916	    -23.74075311	      0.00000000	      0.00000000	    -34.84094555	      2.70569761	     -3.55455972	      0.32142295	    -17.15023006	     10.38058288	     41.07280888	     76.17682938	      0.00000000	      0.00000000	      4.82297981	    -23.88494338	     26.22372647	     47.41892173	     81.56568185	      0.00000000	      0.00000000
      0.38400000	     22.89768292	      0.76441446	      2.13699218	      0.44336908	      0.96926754	     -0.29082680	    -10.20457699	      1.10564649	     -5.33542377	     24.63575741	      0.42997508	     -1.89990362	      0.00000000	      0.00000000	    -18.39586717	     -2.95300055	      1.55773735	     56.34621990	      0.98342706	    -23.40581962	      0.00000000	      0.00000000	    -34.90388115	      2.54042203	     -3.33282140	      0.39522622	    -17.22613904	     10.45781914	     41.07347054	     76.18280274	      0.00000000	      0.00000000	      4.83705314	    -23.82492640	     26.13911722	     47.38188965	     81.56547822	      0.00000000	      0.00000000
      0.38800000	     23.05921101	      0.74027194	      2.34629129	      0.44932316	      0.97036174	     -0.29057182	    -11.22785869	      1.30768318	     -5.40668098	     23.79051208	      0.41522277	     -1.92601749	      0.00000000	      0.00000000	    -18.01462365	     -3.01742933	      1.85611647	     56.50082039	      0.98612535	    -22.02185421	      0.00000000	      0.00000000	    -34.96234697	      2.60881908	     -3.42873392	      0.42471327	    -17.23140586	     10.62219898	     41.14386605	     76.25878959	      0.00000000	      0.00000000	      4.67475873	    -23.86600086	     26.03236117	     47.28265992	     81.65344510	      0.00000000	      0.00000000
      0.39200000	     23.12642784	      0.82534925	      2.19223872	      0.45473304	      0.97129099	     -0.29040785	    -11.85607623	      1.18522118	     -5.61948521	     23.43402504	      0.40900089	     -1.83664334	      0.00000000	      0.00000000	    -17.45035238	     -2.88286729	      1.66763307	     56.60852002	      0.98800506	    -21.66875916	      0.00000000	      0.00000000	    -35.00990048	      2.42570368	     -3.25368654	      0.51052526	    -17.30278537	     10.64173233	     41.17162202	     76.29499209	      0.00000000	      0.00000000	      4.62079777	    -23.82047026	     25.95569035	     47.24880361	     81.67813825	      0.00000000	      0.00000000
      0.39600000	     23.28562583	      0.82290978	      2.22577856	      0.46065989	      0.97241062	     -0.29019670	    -12.84066263	      1.30100013	     -5.54059062	     22.62510764	      0.39488262	     -1.93094497	      0.00000000	      0.00000000	    -17.11916792	     -2.85949981	      1.74943786	     56.59792576	      0.98782015	    -20.41969984	      0.00000000	      0.00000000	    -35.07675038	      2.40519284	     -3.18635113	      0.51612280	    -17.35686379	     10.85153703	     41.30173240	     76.38405636	      0.00000000	      0.00000000	      4.47153698	    -23.75761177	     25.69660854	     47.12218103	     81.71705138	      0.00000000	      0.00000000
      0.40000000	     23.84504863	      0.66734086	      2.15445862	      0.46671408	      0.97398499	     -0.28974239	    -14.36877525	      1.58881968	     -5.52737157	     21.55327388	      0.37617559	     -2.29549973	      0.00000000	      0.00000000	    -17.27994331	     -3.10166510	      1.45152901	     56.41016490	      0.98454311	    -19.27957184	      0.00000000	      0.00000000	    -35.56976535	      2.47622481	     -3.02907824	      0.53561189	    -17.44118372	     10.98231155	     41.58833561	     76.47872084	      0.00000000	      0.00000000	      4.16198008	    -23.75795302	     25.25262465	     47.30131992	     82.10767890	      0.00000000	      0.00000000
